<?xml version="1.0" standalone="no"?>
<!DOCTYPE svg PUBLIC "-//W3C//DTD SVG 20010904//EN"
 "http://www.w3.org/TR/2001/REC-SVG-20010904/DTD/svg10.dtd">
<svg version="1.0" xmlns="http://www.w3.org/2000/svg"
 width="1024.000000pt" height="1024.000000pt" viewBox="0 0 1024.000000 1024.000000"
 preserveAspectRatio="xMidYMid meet">
<metadata>
Created by potrace 1.14, written by Peter Selinger 2001-2017
</metadata>
<g transform="translate(0.000000,1024.000000) scale(0.100000,-0.100000)"
fill="#000000" stroke="none">
<path d="M5102 10208 c-32 -54 -421 -726 -451 -781 -9 -16 -21 -36 -26 -45 -6
-9 -36 -62 -68 -117 -32 -55 -62 -107 -67 -115 -10 -15 -462 -799 -505 -875
-12 -22 -98 -170 -190 -330 -229 -396 -355 -614 -375 -650 -10 -16 -84 -145
-165 -285 -81 -140 -172 -299 -203 -352 -51 -89 -57 -96 -76 -86 -12 6 -131
75 -266 153 -135 78 -265 153 -290 167 -43 25 -481 277 -740 428 -69 39 -143
82 -165 95 -93 52 -271 156 -285 165 -8 6 -22 13 -30 17 -17 8 -400 229 -473
274 -27 16 -50 29 -52 29 -2 0 -38 20 -80 46 -43 25 -79 44 -81 42 -4 -5 -3
-6 141 -254 66 -114 132 -228 146 -253 14 -25 54 -93 87 -149 34 -57 62 -105
62 -107 0 -2 70 -123 155 -270 85 -147 155 -269 155 -271 0 -2 18 -33 40 -69
22 -36 40 -68 40 -71 0 -2 9 -17 19 -32 10 -15 83 -139 162 -277 137 -239 329
-573 349 -605 10 -17 121 -210 166 -290 17 -30 52 -91 78 -135 25 -44 46 -83
46 -86 0 -4 -45 -84 -100 -179 -55 -94 -100 -174 -100 -176 0 -3 -8 -17 -19
-32 -10 -15 -88 -148 -174 -297 -85 -148 -221 -385 -302 -525 -81 -140 -155
-268 -165 -285 -9 -16 -48 -84 -87 -151 -38 -66 -73 -127 -77 -135 -4 -8 -12
-23 -19 -34 -7 -11 -41 -69 -75 -130 -35 -60 -67 -117 -73 -125 -17 -27 -205
-355 -212 -370 -4 -8 -61 -107 -126 -220 -66 -113 -118 -206 -117 -208 2 -1
100 53 217 121 283 164 545 316 591 341 20 12 78 45 130 75 51 30 107 62 123
71 17 10 131 76 255 148 124 71 436 252 694 401 344 198 472 268 478 259 5 -7
29 -49 54 -93 86 -148 529 -916 924 -1600 215 -374 409 -709 430 -745 33 -57
181 -313 505 -875 54 -93 106 -184 116 -202 10 -17 29 -49 42 -70 13 -21 27
-46 30 -56 11 -30 26 -16 69 63 22 41 49 87 59 102 11 14 19 29 19 33 0 3 16
31 35 61 19 30 35 56 35 58 0 3 29 53 63 113 35 59 149 257 254 438 105 182
241 418 303 525 62 107 123 213 135 235 13 22 46 81 75 130 29 50 63 108 75
130 13 22 46 81 75 130 29 50 62 106 73 125 21 37 119 208 337 585 73 127 144
250 158 274 14 25 38 68 55 95 16 28 82 141 145 251 63 110 126 217 138 237
13 21 24 42 24 47 0 26 31 13 186 -77 93 -54 203 -117 244 -140 41 -24 82 -47
90 -52 20 -13 296 -173 351 -203 24 -14 127 -73 229 -132 102 -59 203 -118
225 -130 22 -13 81 -46 130 -75 50 -29 108 -63 130 -75 22 -13 182 -105 355
-205 173 -101 335 -194 360 -208 25 -14 78 -45 119 -69 40 -24 75 -42 77 -41
3 3 -55 110 -108 198 -23 39 -235 406 -266 460 -10 19 -43 76 -72 125 -57 98
-75 129 -127 220 -19 33 -42 74 -52 90 -10 17 -29 50 -43 75 -14 25 -126 218
-248 430 -123 212 -233 403 -245 425 -13 22 -62 108 -110 190 -48 83 -99 170
-113 195 -14 25 -79 137 -144 249 -106 181 -118 207 -109 228 6 13 70 126 142
251 73 125 141 243 151 262 11 19 72 125 136 235 64 110 123 213 131 228 9 16
21 36 26 45 6 10 75 130 154 267 79 138 152 262 162 277 11 15 19 29 19 32 0
4 256 450 309 537 12 19 24 41 28 48 4 8 58 102 120 209 62 107 113 196 113
197 0 2 34 60 75 130 42 70 74 129 72 131 -3 3 -40 -17 -282 -157 -71 -42
-150 -87 -175 -101 -25 -14 -101 -58 -170 -98 -102 -60 -479 -277 -605 -350
-85 -49 -374 -216 -474 -274 -62 -36 -115 -66 -116 -66 -2 0 -47 -26 -102 -58
-54 -32 -118 -70 -143 -84 -25 -14 -128 -73 -229 -132 -207 -119 -183 -117
-237 -19 -29 52 -105 183 -265 460 -49 83 -97 167 -107 185 -11 18 -45 78 -77
133 -180 311 -395 685 -412 715 -49 86 -194 336 -203 350 -5 8 -17 29 -26 45
-9 17 -157 273 -329 570 -171 297 -323 560 -337 585 -14 25 -82 143 -151 262
-70 119 -135 233 -146 253 l-19 36 -20 -33z m460 -1468 c135 -234 255 -441
266 -460 11 -19 52 -91 92 -160 39 -69 82 -143 95 -165 43 -76 427 -740 479
-830 181 -308 426 -738 426 -745 0 -8 -108 -72 -530 -315 -387 -224 -566 -327
-580 -336 -15 -9 -351 -202 -425 -243 -22 -13 -91 -53 -154 -90 -72 -42 -118
-63 -125 -57 -9 7 -468 273 -576 334 -35 19 -267 154 -480 277 -63 37 -135 79
-160 92 -25 14 -157 91 -295 170 -137 80 -257 149 -267 154 -14 8 4 44 128
259 79 138 148 257 154 265 5 8 17 29 26 45 9 17 260 451 557 965 297 514 548
949 557 965 9 17 60 104 112 195 53 91 105 181 116 200 59 106 125 217 134
228 8 9 35 -31 108 -155 53 -93 207 -359 342 -593z m-3892 -1840 c69 -40 140
-81 158 -91 18 -11 90 -52 160 -93 70 -40 278 -160 462 -266 184 -106 340
-198 347 -204 9 -8 4 -24 -21 -66 -39 -65 -248 -425 -285 -492 -79 -141 -113
-199 -116 -196 -3 3 -274 469 -309 531 -12 23 -89 157 -171 297 -117 203 -358
620 -383 663 -5 11 1 8 158 -83z m7051 73 c-5 -10 -48 -85 -96 -168 -48 -82
-99 -170 -113 -195 -14 -25 -65 -113 -113 -197 -49 -83 -97 -167 -108 -185
-10 -18 -53 -94 -96 -168 -43 -74 -89 -155 -103 -180 -14 -25 -33 -57 -43 -72
-11 -14 -19 -28 -19 -31 0 -4 -158 -277 -164 -284 -2 -2 -125 203 -160 268
-13 24 -70 123 -126 219 -153 263 -150 257 -137 268 7 5 30 19 52 31 22 12 47
26 55 31 27 18 343 200 347 200 2 0 20 11 41 23 20 13 57 35 82 49 65 37 563
324 640 369 36 22 66 39 68 39 1 0 -2 -8 -7 -17z m-5312 -1077 c146 -85 282
-163 301 -173 19 -11 132 -76 250 -145 118 -69 235 -136 260 -150 233 -132
520 -302 520 -308 0 -4 -39 -30 -87 -58 -49 -27 -142 -81 -208 -119 -854 -495
-1304 -753 -1313 -753 -6 0 -204 334 -307 519 -11 20 -39 68 -62 106 -22 39
-51 88 -63 110 -12 22 -43 75 -67 117 l-45 78 65 113 c36 62 74 128 85 147 11
19 84 145 162 280 78 135 152 261 163 280 11 19 29 52 40 73 12 20 25 37 30
37 5 0 129 -69 276 -154z m3728 117 c18 -34 150 -265 173 -303 42 -70 108
-183 128 -220 14 -25 68 -118 119 -208 l95 -162 -28 -48 c-29 -48 -36 -59
-117 -203 -26 -46 -57 -100 -69 -119 -11 -19 -69 -120 -129 -225 -61 -104
-116 -201 -124 -215 -9 -14 -28 -46 -43 -72 -15 -27 -30 -48 -35 -48 -6 0
-421 237 -642 367 -27 16 -57 32 -65 36 -8 4 -24 13 -35 19 -51 33 -126 78
-129 78 -14 0 -731 423 -731 431 0 9 29 28 125 82 81 45 129 73 160 92 19 12
42 25 50 28 8 4 29 15 45 25 17 10 50 30 75 44 25 14 160 92 300 173 140 82
273 158 295 171 22 12 153 88 290 168 138 80 255 145 261 146 5 0 19 -17 31
-37z m-2001 -1112 c7 -7 234 -139 384 -224 19 -10 150 -86 290 -167 534 -309
906 -524 940 -543 113 -63 170 -99 170 -107 0 -5 -47 -89 -103 -187 -57 -98
-130 -224 -163 -281 -32 -57 -66 -116 -76 -131 -25 -43 -318 -551 -340 -591
-11 -19 -54 -93 -96 -165 -41 -71 -83 -143 -92 -160 -10 -16 -136 -235 -280
-485 -145 -250 -270 -468 -280 -485 -54 -95 -215 -374 -229 -395 -8 -14 -27
-45 -41 -70 -73 -132 -95 -170 -100 -170 -3 0 -21 28 -40 62 -39 70 -47 84
-183 318 -52 91 -160 278 -239 415 -342 593 -795 1377 -846 1465 -30 52 -97
167 -147 255 -51 88 -134 232 -185 320 -51 88 -104 180 -118 205 -13 25 -29
51 -34 57 -15 19 -4 36 38 59 22 11 314 180 649 374 596 345 756 437 855 493
27 15 93 54 147 86 109 66 105 64 119 52z m-2570 -476 c97 -170 184 -321 191
-335 8 -14 23 -40 33 -58 l20 -32 -38 -23 c-20 -13 -71 -43 -112 -66 -41 -23
-91 -51 -110 -63 -35 -20 -434 -250 -695 -401 -77 -44 -171 -99 -210 -122 -90
-54 -139 -79 -132 -68 8 14 719 1247 737 1278 29 49 86 148 106 182 10 18 22
29 25 25 4 -4 87 -146 185 -317z m5435 91 c22 -39 44 -78 49 -86 26 -41 100
-171 100 -176 0 -3 14 -25 30 -49 17 -24 30 -46 30 -48 0 -3 27 -51 60 -107
33 -56 60 -103 60 -105 0 -1 24 -43 54 -92 29 -49 64 -109 78 -133 14 -25 35
-63 48 -85 12 -22 55 -96 95 -165 40 -69 85 -147 100 -174 l28 -50 -39 24
c-22 12 -59 34 -84 48 -46 26 -404 232 -780 450 -118 69 -231 134 -250 144
-157 88 -159 91 -120 141 11 14 20 27 20 30 0 4 184 326 209 367 5 8 46 79 91
158 l82 143 50 -82 c27 -46 67 -115 89 -153z"/>
</g>
</svg>
